<svg width="240" height="38" viewBox="0 0 240 38" fill="none" xmlns="http://www.w3.org/2000/svg">
<path d="M-4.76837e-07 36.624V33.408H4.272V7.10402H0.0479995V3.88802H10.752V36.624H-4.76837e-07ZM10.752 36.624V33.072H30.576V36.624H10.752ZM17.952 25.632C17.952 24.128 17.648 23.04 17.04 22.368C16.464 21.696 15.488 21.36 14.112 21.36H21.264V28.752H17.952V25.632ZM10.752 21.36V17.904H21.264V21.36H10.752ZM22.896 33.072C24.432 33.072 25.504 32.736 26.112 32.064C26.72 31.392 27.024 30.24 27.024 28.608V24.672H30.576V33.072H22.896ZM14.112 17.904C15.488 17.904 16.464 17.584 17.04 16.944C17.648 16.272 17.952 15.184 17.952 13.68V11.664H21.264V17.904H14.112ZM10.752 7.34402V3.88802H30.24V7.34402H10.752ZM26.64 11.904C26.64 10.272 26.32 9.10402 25.68 8.40002C25.072 7.69602 24 7.34402 22.464 7.34402H30.24V15.408H26.64V11.904ZM43.6489 37.104C42.2409 37.104 40.9609 36.832 39.8089 36.288C38.6889 35.712 37.8089 34.864 37.1689 33.744C36.5289 32.592 36.2089 31.136 36.2089 29.376C36.2089 26.816 37.1049 24.928 38.8969 23.712C40.6889 22.464 43.4249 21.776 47.1049 21.648L51.0409 21.504V18.72C51.0409 17.568 50.9449 16.56 50.7529 15.696C50.5929 14.832 50.2249 14.16 49.6489 13.68C49.0729 13.168 48.1929 12.912 47.0089 12.912C45.8889 12.912 45.0249 13.136 44.4169 13.584C43.8409 14.032 43.4409 14.656 43.2169 15.456C43.0249 16.224 42.9289 17.12 42.9289 18.144C41.3929 18.144 40.2249 17.92 39.4249 17.472C38.6249 16.992 38.2249 16.192 38.2249 15.072C38.2249 13.92 38.6249 13.008 39.4249 12.336C40.2569 11.664 41.3449 11.168 42.6889 10.848C44.0649 10.528 45.5689 10.368 47.2009 10.368C50.2409 10.368 52.5129 10.992 54.0169 12.24C55.5529 13.488 56.3209 15.616 56.3209 18.624V31.008C56.3209 31.904 56.4169 32.608 56.6089 33.12C56.8009 33.6 57.1209 33.952 57.5689 34.176C58.0169 34.368 58.5929 34.464 59.2969 34.464H59.4409V36.624H52.2889L51.4729 32.736H51.0409C50.3689 33.6 49.7129 34.368 49.0729 35.04C48.4329 35.68 47.6969 36.192 46.8649 36.576C46.0329 36.928 44.9609 37.104 43.6489 37.104ZM45.1849 33.984C46.4009 33.984 47.4409 33.728 48.3049 33.216C49.1689 32.672 49.8409 31.904 50.3209 30.912C50.8009 29.92 51.0409 28.768 51.0409 27.456V23.664L48.2089 23.808C46.5449 23.872 45.2329 24.144 44.2729 24.624C43.3129 25.072 42.6249 25.712 42.2089 26.544C41.8249 27.376 41.6329 28.4 41.6329 29.616C41.6329 30.576 41.7609 31.392 42.0169 32.064C42.2729 32.704 42.6569 33.184 43.1689 33.504C43.7129 33.824 44.3849 33.984 45.1849 33.984ZM71.7405 37.104C69.9485 37.104 68.4285 36.896 67.1805 36.48C65.9325 36.064 64.9725 35.472 64.3005 34.704C63.6605 33.904 63.3405 32.96 63.3405 31.872C63.3405 30.944 63.5325 30.24 63.9165 29.76C64.3325 29.28 64.7965 28.944 65.3085 28.752C65.8525 28.56 66.3325 28.464 66.7485 28.464C66.7485 29.648 66.9245 30.72 67.2765 31.68C67.6285 32.608 68.1885 33.344 68.9565 33.888C69.7245 34.4 70.7165 34.656 71.9325 34.656C73.6285 34.656 74.9085 34.272 75.7725 33.504C76.6365 32.736 77.0685 31.76 77.0685 30.576C77.0685 29.808 76.8925 29.168 76.5405 28.656C76.2205 28.144 75.6285 27.648 74.7645 27.168C73.9325 26.656 72.7325 26.096 71.1645 25.488C69.5005 24.784 68.1085 24.08 66.9885 23.376C65.9005 22.672 65.0845 21.856 64.5405 20.928C63.9965 20 63.7245 18.832 63.7245 17.424C63.7245 15.152 64.5725 13.424 66.2685 12.24C67.9965 11.024 70.2685 10.416 73.0845 10.416C74.7485 10.416 76.1245 10.624 77.2125 11.04C78.3325 11.456 79.1485 12 79.6605 12.672C80.2045 13.344 80.4765 14.064 80.4765 14.832C80.4765 15.76 80.1565 16.496 79.5165 17.04C78.8765 17.584 77.9165 17.856 76.6365 17.856C76.6365 16.256 76.2845 15.008 75.5805 14.112C74.9085 13.216 73.8685 12.768 72.4605 12.768C71.5005 12.768 70.6845 12.928 70.0125 13.248C69.3725 13.536 68.8925 13.952 68.5725 14.496C68.2525 15.008 68.0925 15.632 68.0925 16.368C68.0925 17.136 68.2845 17.792 68.6685 18.336C69.0845 18.88 69.7405 19.392 70.6365 19.872C71.5325 20.32 72.7325 20.832 74.2365 21.408C75.8685 22.048 77.2125 22.72 78.2685 23.424C79.3245 24.128 80.1085 24.96 80.6205 25.92C81.1645 26.848 81.4365 27.984 81.4365 29.328C81.4365 31.856 80.5565 33.792 78.7965 35.136C77.0685 36.448 74.7165 37.104 71.7405 37.104ZM97.5135 37.104C93.8655 37.104 91.0335 35.952 89.0175 33.648C87.0335 31.344 86.0415 28.112 86.0415 23.952C86.0415 19.44 87.0015 16.048 88.9215 13.776C90.8415 11.504 93.5455 10.368 97.0335 10.368C100.234 10.368 102.746 11.344 104.569 13.296C106.425 15.216 107.353 18.08 107.353 21.888V24.144H91.4655C91.5295 26.416 91.8175 28.288 92.3295 29.76C92.8735 31.2 93.6415 32.256 94.6335 32.928C95.6575 33.6 96.9055 33.936 98.3775 33.936C99.4975 33.936 100.49 33.776 101.353 33.456C102.249 33.104 103.017 32.672 103.658 32.16C104.33 31.616 104.858 31.04 105.241 30.432C105.53 30.56 105.77 30.784 105.962 31.104C106.154 31.424 106.25 31.808 106.25 32.256C106.25 32.96 105.93 33.696 105.29 34.464C104.682 35.2 103.722 35.824 102.41 36.336C101.129 36.848 99.4975 37.104 97.5135 37.104ZM101.834 21.408C101.834 19.744 101.674 18.288 101.353 17.04C101.034 15.792 100.522 14.832 99.8175 14.16C99.1135 13.456 98.1695 13.104 96.9855 13.104C95.8975 13.104 94.9535 13.424 94.1535 14.064C93.3855 14.704 92.7775 15.648 92.3295 16.896C91.9135 18.112 91.6575 19.616 91.5615 21.408H101.834Z" fill="black"/>
<path d="M121.846 36.624V33.072H127.126C129.462 33.072 131.51 32.56 133.27 31.536C135.03 30.48 136.406 28.992 137.398 27.072C138.422 25.152 138.934 22.88 138.934 20.256C138.934 17.6 138.422 15.312 137.398 13.392C136.406 11.472 135.03 9.98402 133.27 8.92802C131.51 7.87202 129.462 7.34402 127.126 7.34402H121.846V3.88802H127.75C131.366 3.88802 134.534 4.52802 137.254 5.80802C139.974 7.08802 142.086 8.94402 143.59 11.376C145.094 13.808 145.846 16.768 145.846 20.256C145.846 23.712 145.094 26.672 143.59 29.136C142.086 31.568 139.974 33.424 137.254 34.704C134.534 35.984 131.366 36.624 127.75 36.624H121.846ZM111.094 36.624V33.408H115.366V7.10402H111.142V3.88802H121.846V36.624H111.094ZM149.389 36.624V34.464H149.533C150.269 34.464 150.925 34.384 151.501 34.224C152.109 34.064 152.573 33.744 152.893 33.264C153.245 32.752 153.421 32 153.421 31.008V16.32C153.421 15.36 153.245 14.656 152.893 14.208C152.541 13.728 152.077 13.424 151.501 13.296C150.957 13.136 150.333 13.056 149.629 13.056H149.485V10.896H157.502L158.413 15.36H158.654C159.07 14.4 159.517 13.552 159.997 12.816C160.509 12.048 161.165 11.456 161.965 11.04C162.797 10.592 163.901 10.368 165.278 10.368C167.069 10.368 168.398 10.688 169.262 11.328C170.126 11.968 170.558 12.864 170.558 14.016C170.558 15.136 170.158 16.048 169.358 16.752C168.59 17.424 167.358 17.76 165.662 17.76C165.662 16.864 165.582 16.144 165.421 15.6C165.261 15.024 165.005 14.608 164.653 14.352C164.302 14.064 163.806 13.92 163.166 13.92C162.301 13.92 161.565 14.256 160.957 14.928C160.381 15.6 159.933 16.448 159.614 17.472C159.293 18.496 159.053 19.552 158.894 20.64C158.765 21.728 158.701 22.688 158.701 23.52V31.248C158.701 32.176 158.877 32.88 159.23 33.36C159.581 33.808 160.03 34.112 160.574 34.272C161.149 34.4 161.789 34.464 162.494 34.464H163.886V36.624H149.389ZM172.302 36.624V34.464H172.926C173.566 34.464 174.174 34.4 174.75 34.272C175.326 34.112 175.79 33.808 176.142 33.36C176.526 32.88 176.718 32.192 176.718 31.296V16.224C176.718 15.296 176.526 14.608 176.142 14.16C175.79 13.712 175.326 13.424 174.75 13.296C174.174 13.136 173.566 13.056 172.926 13.056H172.686V10.896H181.998V31.104C181.998 32.064 182.174 32.784 182.526 33.264C182.878 33.744 183.342 34.064 183.918 34.224C184.526 34.384 185.15 34.464 185.79 34.464H186.414V36.624H172.302ZM179.166 6.24002C178.27 6.24002 177.518 6.00002 176.91 5.52002C176.334 5.04002 176.046 4.24002 176.046 3.12002C176.046 1.96802 176.35 1.16802 176.958 0.720022C177.566 0.240023 178.302 2.28882e-05 179.166 2.28882e-05C179.998 2.28882e-05 180.718 0.240023 181.326 0.720022C181.966 1.16802 182.286 1.96802 182.286 3.12002C182.286 4.24002 181.966 5.04002 181.326 5.52002C180.718 6.00002 179.998 6.24002 179.166 6.24002ZM190.883 15.552C190.659 14.88 190.387 14.368 190.067 14.016C189.747 13.664 189.363 13.424 188.915 13.296C188.467 13.136 187.907 13.056 187.235 13.056V10.896H200.003V13.056H198.995C198.195 13.056 197.571 13.232 197.123 13.584C196.707 13.904 196.499 14.432 196.499 15.168C196.499 15.456 196.531 15.76 196.595 16.08C196.659 16.368 196.755 16.688 196.883 17.04L200.147 26.112C200.435 26.848 200.707 27.648 200.963 28.512C201.251 29.344 201.491 30.16 201.683 30.96C201.907 31.728 202.099 32.4 202.259 32.976C202.387 32.496 202.563 31.904 202.787 31.2C203.011 30.496 203.267 29.76 203.555 28.992C203.843 28.192 204.115 27.456 204.371 26.784L207.779 17.376C207.939 16.96 208.051 16.56 208.115 16.176C208.179 15.792 208.211 15.456 208.211 15.168C208.211 14.4 207.971 13.856 207.491 13.536C207.011 13.216 206.323 13.056 205.427 13.056H204.803V10.896H215.123V13.056H214.451C213.907 13.056 213.443 13.152 213.059 13.344C212.675 13.504 212.323 13.856 212.003 14.4C211.683 14.944 211.331 15.728 210.947 16.752L203.555 36.624H198.611L190.883 15.552ZM229.232 37.104C225.584 37.104 222.752 35.952 220.736 33.648C218.752 31.344 217.76 28.112 217.76 23.952C217.76 19.44 218.72 16.048 220.64 13.776C222.56 11.504 225.264 10.368 228.752 10.368C231.952 10.368 234.464 11.344 236.288 13.296C238.144 15.216 239.072 18.08 239.072 21.888V24.144H223.184C223.248 26.416 223.536 28.288 224.048 29.76C224.592 31.2 225.36 32.256 226.352 32.928C227.376 33.6 228.624 33.936 230.096 33.936C231.216 33.936 232.208 33.776 233.072 33.456C233.968 33.104 234.736 32.672 235.376 32.16C236.048 31.616 236.576 31.04 236.96 30.432C237.248 30.56 237.488 30.784 237.68 31.104C237.872 31.424 237.968 31.808 237.968 32.256C237.968 32.96 237.648 33.696 237.008 34.464C236.4 35.2 235.44 35.824 234.128 36.336C232.848 36.848 231.216 37.104 229.232 37.104ZM233.552 21.408C233.552 19.744 233.392 18.288 233.072 17.04C232.752 15.792 232.24 14.832 231.536 14.16C230.832 13.456 229.888 13.104 228.704 13.104C227.616 13.104 226.672 13.424 225.872 14.064C225.104 14.704 224.496 15.648 224.048 16.896C223.632 18.112 223.376 19.616 223.28 21.408H233.552Z" fill="black"/>
</svg>
